<svg xmlns="http://www.w3.org/2000/svg" xmlns:xlink="http://www.w3.org/1999/xlink" viewBox="0 0 469.68 469.68"><defs><style>.cls-1,.cls-8{fill:#f0f0f0;}.cls-2{fill:#1f2937;}.cls-3,.cls-5,.cls-6{fill:#fc3;}.cls-4,.cls-9{fill:#fff;}.cls-5,.cls-6{stroke:#1d1d1b;stroke-miterlimit:10;}.cls-5{stroke-width:5px;}.cls-6{stroke-width:2px;}.cls-7{fill:#333;}.cls-8,.cls-9{font-size:32.66px;font-family:VampireWars, Vampire Wars;}.cls-10{clip-path:url(#clip-path);}</style><clipPath id="clip-path"><path id="SVGID" class="cls-1" d="M265.12,324.7c-.25.82-.52,1.62-.81,2.42s-.63,1.59-1,2.36A40.93,40.93,0,0,1,260.9,334a42.22,42.22,0,0,1-3,4.17,41.7,41.7,0,0,1-7.42,7.12,35.79,35.79,0,0,1-9.05,4.87,35.24,35.24,0,0,1-10.12,2l-.65,0-.65,0h-2.27l-.33,0-.64,0-.65-.05-.33,0-.32,0-.65-.06-1.29-.18c-.86-.12-1.71-.29-2.56-.47a37.44,37.44,0,0,1-9.74-3.65A68.52,68.52,0,0,1,200,339.36,68.7,68.7,0,0,0,211.1,348a37.87,37.87,0,0,0,9.76,3.95c.85.21,1.71.4,2.58.55l1.31.21.65.08.33.05.33,0,.66.07.66,0,.33,0,.33,0,.66,0h2.66a36.48,36.48,0,0,0,10.44-1.84,37.07,37.07,0,0,0,9.5-4.8l.27-.19.27-.19.54-.4,1.06-.82c.35-.27.69-.56,1-.85l1-.88a43.91,43.91,0,0,0,7-8.11,41.94,41.94,0,0,0,2.67-4.66c.39-.8.76-1.62,1.09-2.46s.65-1.67.93-2.53a37.59,37.59,0,0,0,1.29-5.25l-2.2-.34a35.22,35.22,0,0,1-1.08,5"/></clipPath></defs><g id="Layer_2" data-name="Layer 2"><g id="شعارات_الهوية_1" data-name="شعارات الهوية 1"><g id="Layer_1-2" data-name="Layer 1"><g id="Layer_5_copy" data-name="Layer 5 copy"><circle class="cls-2" cx="234.84" cy="234.84" r="234.84"/><path class="cls-3" d="M239.23,80.55V149.8h.44V80.55a1.55,1.55,0,0,0,1.56-1.34,1.85,1.85,0,0,0-3.56,0A1.55,1.55,0,0,0,239.23,80.55Zm.22-.33a1,1,0,1,1,0-2c.74,0,1.34.45,1.34,1S240.19,80.22,239.45,80.22Z"/><path class="cls-4" d="M226.16,105.62V149.8h.44v-44l6.72-5.11V81.9a1.55,1.55,0,0,0,1.56-1.34,1.85,1.85,0,0,0-3.56,0,1.55,1.55,0,0,0,1.56,1.34v18.61Zm6.94-24.05a1,1,0,1,1,0-2c.74,0,1.33.45,1.33,1S233.84,81.57,233.1,81.57Z"/><path class="cls-4" d="M252.3,99.2v50.6h.45V99.06L246,94V78.58a1.54,1.54,0,0,0,1.55-1.33,1.84,1.84,0,0,0-3.55,0,1.54,1.54,0,0,0,1.55,1.33V94.1Zm-6.5-20.94a1.05,1.05,0,1,1,1.34-1C247.14,77.8,246.54,78.26,245.8,78.26Z"/><path class="cls-4" d="M242.52,96.63V81.41a.88.88,0,0,1-.91-.76c0-.43.46-.77,1-.77s1,.34,1,.77a.87.87,0,0,1-.9.76V96.56l3.64,2.76V149.8h-.22V99.39Z"/><path class="cls-4" d="M236.17,103.11V84.28c-.51,0-.91-.37-.91-.77s.46-.77,1-.77a.92.92,0,0,1,1,.77.9.9,0,0,1-.9.77v18.9L232.75,106V149.8h-.22V105.88Z"/><path class="cls-1" d="M297.9,142.41v46.66c-6.6,0-13,0-19.44,0q-26.34.08-52.68.19c-2.92,0-6.72-.66-6.64,3.88.06,4,3.41,5,6.77,5.06,7.91.19,15.82.17,23.73.34,22.67.48,40.81,13.5,46.7,33.46,9,30.45-10,58.91-41.76,60.52-25.25,1.29-50.6.54-75.91.69-2.41,0-4.29-.41-4.27-3.62.1-14.06,0-28.13,0-42.69,2.31-.17,4.45-.47,6.59-.47,22.78-.09,45.56-.1,68.34-.2,2.88,0,7,.76,7.1-3.45s-3.87-4.88-7.28-5c-11.37-.43-22.84.13-34.09-1.25-19.47-2.38-34.17-16.95-38.73-36.74-4.43-19.26,2.52-37.66,18.44-48.69,8.47-5.87,18.13-8.24,28.22-8.41,19.61-.33,39.23-.21,58.85-.28ZM191.48,168.3a55.14,55.14,0,0,0-2.91,5.17c-10.68,24.87,7.27,53,34.3,53.63,8.07.19,16.15-.11,24.21.14,12.81.4,19,6.59,19.17,18.83a4.16,4.16,0,0,0,.66,2.63c5.27,5.59,10.65,11.09,16.51,17.12a61.06,61.06,0,0,0,3.08-6,36.77,36.77,0,0,0-30-49.64c-9.08-1.08-18.31-.86-27.48-1.11-10.82-.29-21-6.24-19.51-19.17a5.5,5.5,0,0,0-1.28-3.81C202.92,180.3,197.45,174.62,191.48,168.3ZM184.6,282.92a9.07,9.07,0,0,0,1.74.36c21.51,0,43,0,64.53-.23a32.52,32.52,0,0,0,20.24-7c1.18-.95,1.7-3.92,1.18-5.53-.79-2.45-2.88-2.18-5.43-1.37-5.91,1.89-12,4.12-18.13,4.28-19.6.53-39.22.19-58.83.18h-5.3Zm.54-17.83a12.47,12.47,0,0,0,2.12.4c19.77,0,39.54.11,59.3,0a43.09,43.09,0,0,0,11.63-1.69c1.58-.46,3.63-2.93,3.61-4.46,0-2.95-2.68-3.32-5.34-3a63.34,63.34,0,0,1-8,.57q-29,0-57.89,0h-5.41ZM288.28,154.37A19.07,19.07,0,0,0,286,154c-20.38,0-40.76.07-61.14.21a29.65,29.65,0,0,0-8,.94,76.94,76.94,0,0,0-12.74,4.73c-1,.51-1.44,3.49-1,5.07.19.76,3.51,1.79,4.34,1.19,5.62-4,11.92-4.68,18.48-4.69q28.2,0,56.41-.1c2,0,3.92-.29,6-.44Zm-33.73,22.85v.4c10.13,0,20.27-.14,30.39.07,3.8.08,4.54-2,3.67-4.67-.38-1.16-2.66-2.42-4.09-2.43q-29-.15-57.93.13a32.92,32.92,0,0,0-9.33,1.32c-1.43.44-2.38,2.47-3.55,3.78,1.61,1,3.24,2.73,4.84,2.7C230.56,178.29,242.55,177.7,254.55,177.22Z"/><path class="cls-1" d="M170.32,335c-6-6.43-12.15-13.25-18.57-19.76Q124.93,288,97.87,261.05a11,11,0,0,1-3.49-8.81c.23-9,.05-18,.12-27,.08-9.63-.21-19.13-2.2-28.69C89.08,181,95.83,169.19,109,165.18c10.49-3.21,21.2,0,27.79,8.23s8.27,20,1.86,28.75c-7.39,10.09-4.09,20.88-4.5,31.48-.05,1.39,1.5,3.06,2.68,4.23,8.09,8,16.13,16.09,24.51,23.8,3.89,3.58,6.2,7.29,5.38,12.72-.35,2.32-.05,4.73-.05,8.2-1.79-1.43-3.11-2.32-4.22-3.42-12.47-12.36-25-24.7-37.28-37.22a9.41,9.41,0,0,1-2.21-5.78c-.27-6.76-.1-13.54-.1-20.17-8.92-1.36-16.88,5.25-16.92,13.32,0,6.49-.17,13,.09,19.46a8.58,8.58,0,0,0,2.16,5.29q30.87,31.21,62,62.21c.66.65,1.42,1.21,3.21,2.73,3.72-4.07,7.37-8.17,11.12-12.16,4.68-5,11.34-6.22,17.87-3.6ZM112.89,203.44l1.22-1.12c-1.6-1.84-3.16-3.71-4.82-5.49-4.07-4.39-4.05-10.07.1-14.43s10.55-4.78,14.82-.71a10.43,10.43,0,0,1,.45,14.54c-1.14,1.28-2.79,2.11-3.92,3.39-.71.8-.9,2.07-1.33,3.13,1.13.27,2.35,1,3.35.73a9.24,9.24,0,0,0,3.63-2.09c5.71-4.91,7.29-12.58,4-18.87s-10.69-9.23-17.92-7.37a15,15,0,0,0-11.06,14.79C101.8,197,106.51,202.54,112.89,203.44Zm10.75-14.39a6.62,6.62,0,0,0-6.36-6.39c-3.46,0-7.21,3.61-7.26,6.93s3.91,7.25,7,7.13S123.63,192.54,123.64,189.05Z"/><path class="cls-1" d="M352,201.61V85.44c-1.54,1.46-2.55,2.37-3.49,3.33-12.9,13.06-25.9,26-38.59,39.27-3,3.12-6,4.83-10.25,4.6-3.44-.18-6.9,0-10.06,0L363.33,58V182.37l1.22.57,12.37-11.69c.22,6.15,3.35,12.38-1.15,17.67-3.86,4.53-8.22,8.62-12.68,13.24,7.73,4.71,15,9.89,16.54,19.53,1.07,6.65.91,13.27-2.39,19.43-5.13,9.58-17,14.76-28,12.25a25.41,25.41,0,0,1-20-24C328.62,216.05,335.83,207.18,352,201.61Zm.22,11.54a15.69,15.69,0,0,0-12.45,16.66c.65,7.64,7.13,13.35,15.17,13.38s14.43-5.34,15.33-13.16c.87-7.64-3.7-14.48-11.31-15.49a9.37,9.37,0,0,0,2.44,4.63c4.47,3.9,6,8.05,4.16,12.47a11,11,0,0,1-10.76,7,10.66,10.66,0,0,1-10-8c-1.11-4,.76-8.91,4.63-11.57C351.47,217.62,354.26,216.8,352.19,213.15Zm9.91,14.58c0-3.7-2.75-6.37-6.65-6.36a6.14,6.14,0,0,0-6.34,6.6c.08,3.95,2.41,6.08,6.08,6.53S362.05,231.6,362.1,227.73Z"/><path class="cls-1" d="M110.94,151.18h10.33v-65l62.56,62.52,8.67-6c-26.95-27.86-53.89-55.73-81.56-84.35Z"/><path class="cls-1" d="M307.87,334.05c-1.1-.14-1.66-1.44-2.36-2.14l-2.2-2.13-4.61-4.47c-3-2.94-6-6.53-9.33-9.05l-9.3-9-4.66-4.51c-1.33-1.3-3.75-2.93-4.5-4.56,2.61-1.39,5.73-2.19,8.51-3.23a5.68,5.68,0,0,1,2.67-.53c2.61.35,5,3.7,6.83,5.39,2.42,2.28,4.83,4.59,7.17,7,2.83,2.85,5.58,5.79,8.58,8.46,2.63,2.33,4.72,2.73,7.25,0,6.72-7.26,13.83-14.16,21-21,4.57-4.36,9.55-8.55,13.94-13.2,4.11-4.36,9-9.84,8.22-16.31h11.09c1.88,0,.69,5.39.49,6.37-1.39,6.89-6.28,12.07-11.2,16.75-8.53,8.12-17.1,16.2-25.58,24.37-6,5.77-12.46,11.43-17.52,18.05-1,1.25,0,0-4.39,3.79C307.94,334.08,307.9,334.05,307.87,334.05Z"/><path class="cls-3" d="M307.21,163.39c0-5.79-.08-10.82.06-15.86a4.7,4.7,0,0,1,1.42-2.79q15-14.87,30.08-29.63a9.52,9.52,0,0,1,1.77-.89c0,5.22.08,10-.07,14.85A4.78,4.78,0,0,1,339,131.9q-14.77,15.07-29.67,30A18.07,18.07,0,0,1,307.21,163.39Z"/><path class="cls-3" d="M174.35,305.49c-4.54-4.31-9.12-8.58-13.6-12.94q-23.1-22.5-46.1-45.1a6.7,6.7,0,0,1-2-3.94c-.24-4.4-.09-8.82-.09-13.41l4.91-1.29c.26,3.64.18,6.94.83,10.1.49,2.45,1.3,5.3,3,7,17.33,17.31,34.94,34.35,52.25,51.69,1.57,1.57,1.58,4.7,2.31,7.1Z"/><path class="cls-5" d="M191.48,168.3c6,6.32,11.44,12,16.75,17.83a5.5,5.5,0,0,1,1.28,3.81c-1.46,12.93,8.69,18.88,19.51,19.17,9.17.25,18.4,0,27.48,1.11a36.77,36.77,0,0,1,30,49.64,61.06,61.06,0,0,1-3.08,6c-5.86-6-11.24-11.53-16.51-17.12a4.16,4.16,0,0,1-.66-2.63c-.21-12.24-6.36-18.43-19.17-18.83-8.06-.25-16.14,0-24.21-.14-27-.66-45-28.76-34.3-53.63A55.14,55.14,0,0,1,191.48,168.3Z"/><path class="cls-6" d="M184.6,282.92v-9.28h5.3c12,0,24,.14,36,.12,14.29,0,27.27-.19,41-4.58,2.55-.81,4.64-1.08,5.43,1.37,3.22,10-15.33,12.43-21.42,12.5-21.51.27-43,.19-64.53.23A9.07,9.07,0,0,1,184.6,282.92Z"/><path class="cls-6" d="M185.14,265.09v-8.24h5.41q28.94,0,57.89,0a63.34,63.34,0,0,0,8-.57c2.66-.33,5.3,0,5.34,3,0,1.53-2,4-3.61,4.46a43.09,43.09,0,0,1-11.63,1.69c-19.76.15-39.53.07-59.3,0A12.47,12.47,0,0,1,185.14,265.09Z"/><path class="cls-6" d="M288.28,154.37V161c-2,.15-4,.43-6,.44q-28.2.09-56.41.1c-6.56,0-12.86.68-18.48,4.69-.83.59-4.14-.43-4.34-1.19-2.29-8.92,16.27-10.71,21.77-10.74,20.38-.14,40.76-.17,61.14-.21A19.07,19.07,0,0,1,288.28,154.37Z"/><path class="cls-7" d="M112.89,203.44c-6.38-.9-11.09-6.44-11.48-13.5a15,15,0,0,1,11.06-14.79c7.23-1.86,14.68,1.2,17.92,7.37s1.71,14-4,18.87a9.24,9.24,0,0,1-3.63,2.09c-1,.23-2.22-.46-3.35-.73.43-1.06.62-2.33,1.33-3.13,1.13-1.28,2.78-2.11,3.92-3.39a10.43,10.43,0,0,0-.45-14.54c-4.27-4.07-10.56-3.76-14.82.71s-4.17,10-.1,14.43c1.66,1.78,3.22,3.65,4.82,5.49Z"/><path class="cls-3" d="M123.64,189.05c0,3.49-3.5,7.55-6.57,7.67s-7.1-3.89-7-7.13,3.8-6.9,7.26-6.93A6.62,6.62,0,0,1,123.64,189.05Z"/><rect class="cls-6" x="212.38" y="169.95" width="77.91" height="9.17" rx="4.58"/><path class="cls-3" d="M168.7,298.21h3.92a5.25,5.25,0,0,1,5.25,5.25v0a0,0,0,0,1,0,0H168.7a0,0,0,0,1,0,0v-5.2a0,0,0,0,1,0,0Z" transform="translate(253.14 -37.01) rotate(43.24)"/><text class="cls-8" transform="translate(66.9 389.02)">Saif Alaslam Alfakih</text><text class="cls-9" transform="translate(66.9 389.02)">Saif Alaslam Alfakih</text><circle class="cls-1" cx="115.72" cy="189.23" r="26.15"/><path class="cls-7" d="M115.72,189.23,112,208.89a20,20,0,1,1,7.69-.06Z"/><circle class="cls-1" cx="115.72" cy="189.85" r="12.39"/><circle class="cls-3" cx="115.84" cy="189.85" r="9.94"/><circle class="cls-1" cx="354.67" cy="228.86" r="26.15"/><path class="cls-7" d="M354.67,228.86l3.71-19.66a20,20,0,1,1-7.7.05Z"/><circle class="cls-1" cx="354.67" cy="228.23" r="12.39"/><circle class="cls-3" cx="354.55" cy="228.23" r="9.94"/><path class="cls-1" d="M133.53,114.85l31.46,35,4.32,23L137.7,137.69l-4.15-22.11C133.46,115.09,133.45,114.76,133.53,114.85Z"/></g></g><g id="Layer_5" data-name="Layer 5"><rect class="cls-1" x="220.17" y="323.01" width="7.76" height="17.43"/><rect class="cls-1" x="242.65" y="310.6" width="9.03" height="29.85"/><rect class="cls-1" x="231.26" y="317.53" width="8.19" height="22.92"/><path id="SVGID-2" data-name="SVGID" class="cls-1" d="M265.12,324.7c-.25.82-.52,1.62-.81,2.42s-.63,1.59-1,2.36A40.93,40.93,0,0,1,260.9,334a42.22,42.22,0,0,1-3,4.17,41.7,41.7,0,0,1-7.42,7.12,35.79,35.79,0,0,1-9.05,4.87,35.24,35.24,0,0,1-10.12,2l-.65,0-.65,0h-2.27l-.33,0-.64,0-.65-.05-.33,0-.32,0-.65-.06-1.29-.18c-.86-.12-1.71-.29-2.56-.47a37.44,37.44,0,0,1-9.74-3.65A68.52,68.52,0,0,1,200,339.36,68.7,68.7,0,0,0,211.1,348a37.87,37.87,0,0,0,9.76,3.95c.85.21,1.71.4,2.58.55l1.31.21.65.08.33.05.33,0,.66.07.66,0,.33,0,.33,0,.66,0h2.66a36.48,36.48,0,0,0,10.44-1.84,37.07,37.07,0,0,0,9.5-4.8l.27-.19.27-.19.54-.4,1.06-.82c.35-.27.69-.56,1-.85l1-.88a43.91,43.91,0,0,0,7-8.11,41.94,41.94,0,0,0,2.67-4.66c.39-.8.76-1.62,1.09-2.46s.65-1.67.93-2.53a37.59,37.59,0,0,0,1.29-5.25l-2.2-.34a35.22,35.22,0,0,1-1.08,5"/><g class="cls-10"><path class="cls-1" d="M202.82,319.73V332h.24a6.08,6.08,0,0,1,.61,0,5.22,5.22,0,0,1,1.64-.26c6.44,0,6.43,10,0,10a5.27,5.27,0,0,1-.57,0,5.19,5.19,0,0,1-1.68.27h-.24v11.09H268.4V319.73Z"/></g></g></g></g></svg>